<svg xmlns="http://www.w3.org/2000/svg" viewBox="0 0 320 260" shape-rendering="crispEdges" id="svg--desk" class="svg">
  <!-- In units of 10 per grid pixel. No offset -->
  <polygon class="pixel--leather" points="0,110 320,110 320,260 310,260 310,130 10,130 10,260 0,260" />
  <g class="desk__plant">
    <polygon class="pixel--green" points="10,40 40,40 40,50 50,50 50,70 0,70 0,50 10,50" />
    <polygon class="pixel--light-brown" points="20,70 30,70 30,80 20,80" />
    <polygon class="pixel--stubble" points="10,80 40,80 40,110 10,110" />
  </g>
  <g class="desk__mug">
    <polygon class="pixel--black" points="180,110 150,110 150,100 140,100 140,90 150,90 150,80 180,80" />
  </g>
  <g class="desk__monitor">
    <polygon class="pixel--light-gray" points="320,0 320,80 200,80 200,0" />
    <polygon class="pixel--shadow-gray" points="270,80 250,80 250,100 270,100" />
    <polygon class="pixel--light-gray" points="290,100 290,110 230,110 230,100" />
    <polygon class="pixel--gray" points="270,20 270,30 250,30 250,50 270,50 270,40 260,40 260,20" />
  </g>
</svg>
